<svg width="1440" height="974" viewBox="0 0 1440 974" fill="none" xmlns="http://www.w3.org/2000/svg">
<path fill-rule="evenodd" clip-rule="evenodd" d="M0 63.5441V0.140625C0 0.140625 53.6162 35.572 90.875 35.572C109.504 35.572 122.908 26.7141 136.312 17.8563C149.717 8.99846 163.121 0.140625 181.75 0.140625C200.379 0.140625 213.783 8.99846 227.188 17.8563C240.592 26.7141 253.996 35.572 272.625 35.572C291.254 35.572 304.658 26.7141 318.062 17.8563C331.467 8.99846 344.871 0.140625 363.5 0.140625C382.129 0.140625 395.533 8.99846 408.938 17.8563C422.342 26.7141 435.746 35.572 454.375 35.572C473.004 35.572 486.408 26.7141 499.812 17.8563C513.217 8.99846 526.621 0.140625 545.25 0.140625C563.879 0.140625 577.283 8.99846 590.688 17.8563C604.092 26.7141 617.496 35.572 636.125 35.572C654.754 35.572 668.158 26.7141 681.562 17.8563C694.967 8.99846 708.371 0.140625 727 0.140625C745.629 0.140625 759.033 8.99846 772.438 17.8563C785.842 26.7141 799.246 35.572 817.875 35.572C836.504 35.572 849.908 26.7141 863.312 17.8563C876.717 8.99846 890.121 0.140625 908.75 0.140625C927.379 0.140625 940.783 8.99846 954.188 17.8563C967.592 26.7141 980.996 35.572 999.625 35.572C1018.25 35.572 1031.66 26.7141 1045.06 17.8563C1058.47 8.99846 1071.87 0.140625 1090.5 0.140625C1109.13 0.140625 1122.53 8.99846 1135.94 17.8563C1149.34 26.7141 1162.75 35.572 1181.38 35.572C1200 35.572 1213.41 26.7141 1226.81 17.8563C1240.22 8.99846 1253.62 0.140625 1272.25 0.140625C1290.88 0.140625 1304.28 8.99846 1317.69 17.8563C1331.09 26.7141 1344.5 35.572 1363.12 35.572C1400.38 35.572 1454 0.140625 1454 0.140625V63.5441H1456V909.737V918.272V973.14C1456 973.14 1402.31 937.709 1365 937.709C1346.34 937.709 1332.92 946.567 1319.5 955.425C1306.08 964.282 1292.66 973.14 1274 973.14C1255.34 973.14 1241.92 964.282 1228.5 955.425C1215.08 946.567 1201.66 937.709 1183 937.709C1164.35 937.709 1150.92 946.567 1137.5 955.425C1124.08 964.282 1110.66 973.14 1092 973.14C1073.35 973.14 1059.92 964.282 1046.5 955.425C1033.08 946.567 1019.66 937.709 1001 937.709C982.345 937.709 968.922 946.567 955.5 955.425C942.078 964.282 928.655 973.14 910 973.14C891.345 973.14 877.922 964.282 864.5 955.425C851.078 946.567 837.655 937.709 819 937.709C800.345 937.709 786.922 946.567 773.5 955.425C760.078 964.282 746.655 973.14 728 973.14C709.345 973.14 695.922 964.282 682.5 955.425C669.078 946.567 655.655 937.709 637 937.709C618.345 937.709 604.922 946.567 591.5 955.425C578.078 964.282 564.655 973.14 546 973.14C527.345 973.14 513.922 964.282 500.5 955.425C487.078 946.567 473.655 937.709 455 937.709C436.345 937.709 422.922 946.567 409.5 955.425C396.078 964.282 382.655 973.14 364 973.14C345.345 973.14 331.922 964.282 318.5 955.425C305.078 946.567 291.655 937.709 273 937.709C254.345 937.709 240.923 946.567 227.5 955.425C214.078 964.282 200.655 973.14 182 973.14C163.345 973.14 149.923 964.282 136.5 955.425C123.078 946.567 109.655 937.709 91 937.709C53.69 937.709 1.52588e-05 973.14 1.52588e-05 973.14L0 918.272V63.5441Z" fill="#19314B"/>
</svg>
