<svg width="1440" height="795" viewBox="0 0 1440 795" fill="none" xmlns="http://www.w3.org/2000/svg">
<path fill-rule="evenodd" clip-rule="evenodd" d="M0 51.8045V0C0 0 53.0271 28.9496 89.8764 28.9496C108.301 28.9496 121.558 21.7122 134.815 14.4748C148.071 7.23739 161.328 0 179.753 0C198.177 0 211.434 7.23739 224.691 14.4748C237.948 21.7122 251.204 28.9496 269.629 28.9496C288.054 28.9496 301.311 21.7122 314.567 14.4748C327.824 7.23739 341.081 0 359.505 0C377.93 0 391.187 7.23739 404.444 14.4748C417.7 21.7122 430.957 28.9496 449.382 28.9496C467.807 28.9496 481.063 21.7122 494.32 14.4748C507.577 7.23739 520.834 0 539.258 0C557.683 0 570.94 7.23738 584.196 14.4748C597.453 21.7122 610.71 28.9496 629.135 28.9496C647.559 28.9496 660.816 21.7122 674.073 14.4748C687.33 7.23739 700.586 0 719.011 0C737.436 0 750.692 7.23738 763.949 14.4748C777.206 21.7122 790.463 28.9496 808.887 28.9496C827.312 28.9496 840.569 21.7122 853.826 14.4748C867.082 7.23739 880.339 0 898.764 0C917.188 0 930.445 7.23738 943.702 14.4748C956.959 21.7122 970.215 28.9496 988.64 28.9496C1007.06 28.9496 1020.32 21.7122 1033.58 14.4748C1046.83 7.2374 1060.09 0 1078.52 0C1096.94 0 1110.2 7.2374 1123.45 14.4748C1136.71 21.7122 1149.97 28.9496 1168.39 28.9496C1186.82 28.9496 1200.07 21.7122 1213.33 14.4748C1226.59 7.23739 1239.84 0 1258.27 0C1276.69 0 1289.95 7.23738 1303.21 14.4748C1316.46 21.7122 1329.72 28.9496 1348.15 28.9496C1384.99 28.9496 1438.02 0 1438.02 0V51.8045H1440V743.195V750.169V795C1440 795 1386.9 766.05 1350 766.05C1331.55 766.05 1318.28 773.287 1305 780.525C1291.72 787.762 1278.45 795 1260 795C1241.55 795 1228.28 787.762 1215 780.525C1201.72 773.287 1188.45 766.05 1170 766.05C1151.55 766.05 1138.28 773.287 1125 780.525C1111.72 787.762 1098.45 795 1080 795C1061.55 795 1048.28 787.762 1035 780.525C1021.72 773.287 1008.45 766.05 990 766.05C971.55 766.05 958.275 773.287 945 780.525C931.725 787.762 918.45 795 900 795C881.55 795 868.275 787.762 855 780.525C841.725 773.287 828.45 766.05 810 766.05C791.55 766.05 778.275 773.287 765 780.525C751.725 787.762 738.45 795 720 795C701.55 795 688.275 787.762 675 780.525C661.725 773.287 648.45 766.05 630 766.05C611.55 766.05 598.275 773.287 585 780.525C571.725 787.762 558.45 795 540 795C521.55 795 508.275 787.762 495 780.525C481.725 773.287 468.45 766.05 450 766.05C431.55 766.05 418.275 773.287 405 780.525C391.725 787.762 378.45 795 360 795C341.55 795 328.275 787.762 315 780.525C301.725 773.287 288.45 766.05 270 766.05C251.55 766.05 238.275 773.287 225 780.525C211.725 787.762 198.45 795 180 795C161.55 795 148.275 787.762 135 780.525C121.725 773.287 108.45 766.05 90 766.05C53.1 766.05 0 795 0 795V750.169V743.195V51.8045Z" fill="#6C3833"/>
</svg>
