<svg width="1440" height="832" viewBox="0 0 1440 832" fill="none" xmlns="http://www.w3.org/2000/svg">
<path fill-rule="evenodd" clip-rule="evenodd" d="M1440 -112H0V769.279C7.05196 765.14 15.2133 762.313 23.9043 761.069C18.3292 749.962 17.0018 737.75 20.0948 726.023C23.1877 714.295 30.5578 703.594 41.2467 695.311C51.9355 687.029 65.4483 681.547 80.0278 679.581C94.6072 677.614 109.579 679.253 122.995 684.284C128.688 676.949 137.103 671.268 147.028 668.061C156.953 664.853 167.877 664.283 178.226 666.434C188.575 668.584 197.817 673.344 204.62 680.028C211.424 686.712 215.439 694.975 216.087 703.628C220.411 702.142 225.064 701.387 229.761 701.409C234.346 701.41 238.886 702.144 243.121 703.569C247.357 704.993 251.205 707.081 254.446 709.713C257.687 712.344 260.258 715.468 262.012 718.906C263.765 722.343 264.667 726.028 264.666 729.748C264.67 730.854 264.591 731.958 264.429 733.055C274.738 727.536 286.529 724.105 298.811 723.051C311.094 721.998 323.508 723.352 335.012 727C346.515 730.648 356.772 736.483 364.919 744.015C373.067 751.548 378.867 760.557 381.833 770.286C384.678 768.659 387.754 767.316 390.995 766.284C398.031 761.942 406.373 759.21 415.152 758.371C423.931 757.531 432.826 758.616 440.913 761.513C447.355 756.274 455.669 752.819 464.672 751.641C473.676 750.463 482.907 751.621 491.051 754.951C497.171 743.487 508.141 734.177 521.979 728.702C535.818 723.227 551.613 721.947 566.512 725.095C581.411 728.242 594.432 735.609 603.224 745.865C612.016 756.12 615.999 768.589 614.454 781.019C614.355 781.838 614.185 782.639 614.016 783.436C613.967 783.669 613.918 783.901 613.87 784.134C622.275 781.99 631.182 781.475 639.876 782.632C648.57 783.788 656.808 786.583 663.929 790.793C671.05 795.002 676.855 800.508 680.877 806.869C684.9 813.229 687.028 820.267 687.09 827.416C697.589 825.629 708.531 827.049 717.82 831.403C720.498 828.77 723.86 826.651 727.666 825.197C731.472 823.743 735.628 822.99 739.835 822.992C743.673 822.983 747.473 823.61 751.002 824.834C751.511 817.734 754.787 810.95 760.358 805.46C765.929 799.97 773.505 796.058 781.994 794.29C790.483 792.522 799.444 792.988 807.585 795.622C815.725 798.256 822.624 802.922 827.284 808.944C835.216 805.96 843.856 804.42 852.599 804.432C856.092 804.437 859.578 804.685 863.018 805.172C862.763 803.041 862.626 800.911 862.626 798.692C862.638 788.645 865.487 778.734 870.956 769.721C876.425 760.708 884.368 752.832 894.175 746.699C903.981 740.566 915.389 736.339 927.523 734.343C939.657 732.347 952.194 732.635 964.169 735.185C969.204 723.465 977.912 713.01 989.436 704.848C1000.96 696.686 1014.9 691.099 1029.9 688.636C1044.89 686.173 1060.41 686.919 1074.94 690.801C1089.47 694.682 1102.5 701.566 1112.76 710.774C1122.08 700.637 1135.25 693.267 1150.24 689.801C1165.23 686.335 1181.21 686.965 1195.71 691.593C1198.12 683.143 1203.51 675.445 1211.22 669.439C1218.93 663.434 1228.63 659.38 1239.13 657.773C1249.63 656.166 1260.48 657.076 1270.36 660.392C1280.24 663.707 1288.71 669.285 1294.74 676.443C1299.24 673.926 1304.35 672.232 1309.73 671.48C1315.11 670.728 1320.63 670.935 1325.91 672.087C1331.18 673.239 1336.08 675.309 1340.27 678.152C1344.46 680.995 1347.84 684.544 1350.17 688.553C1356.19 681.447 1364.85 676.091 1374.9 673.267C1384.94 670.443 1395.83 670.299 1405.98 672.857C1416.13 675.414 1425 680.54 1431.31 687.483C1435.61 692.221 1438.56 697.636 1440 703.338V-112Z" fill="#6C3833"/>
</svg>
