<svg width="60" height="60" viewBox="0 0 60 60" fill="none" xmlns="http://www.w3.org/2000/svg">
<g filter="url(#filter0_dd_248_145)">
<rect x="4" y="4" width="48" height="48" rx="8" fill="#19314B"/>
<path d="M27.4197 44C30.0896 44 32.7141 43.3103 35.0391 41.9978C37.3641 40.6854 39.3106 38.7946 40.6901 36.5088C42.0696 34.223 42.8353 31.6196 42.9129 28.9509C42.9906 26.2821 42.3776 23.6386 41.1334 21.2764C41.0629 21.1497 40.9456 21.0556 40.8065 21.0144C40.6675 20.9733 40.5178 20.9883 40.3897 21.0563C40.2617 21.1244 40.1654 21.2399 40.1216 21.3782C40.0779 21.5165 40.0901 21.6664 40.1558 21.7957C41.2455 23.8623 41.8142 26.1637 41.8126 28.5C41.0238 47.591 13.8157 47.591 13.0269 28.5C12.894 17.826 24.7626 10.6717 34.1246 15.7645C34.1888 15.7986 34.2591 15.8197 34.3315 15.8266C34.4039 15.8334 34.4769 15.826 34.5464 15.8047C34.6159 15.7833 34.6805 15.7485 34.7365 15.7022C34.7926 15.6559 34.839 15.599 34.873 15.5348C34.9071 15.4706 34.9282 15.4003 34.935 15.3279C34.9419 15.2555 34.9345 15.1825 34.9132 15.113C34.8918 15.0435 34.857 14.9789 34.8107 14.9229C34.7644 14.8668 34.7075 14.8204 34.6433 14.7864C32.4168 13.6117 29.9371 12.9985 27.4197 13C6.86009 13.8497 6.86009 43.1508 27.4197 44Z" fill="white"/>
<path d="M27.4197 24.071C27.899 24.0707 28.3749 24.1502 28.828 24.3063C28.9668 24.3541 29.1189 24.3447 29.2509 24.2804C29.3828 24.216 29.4838 24.1019 29.5316 23.9631C29.7752 22.9849 28.0508 23.0237 27.4197 22.9639C20.0766 23.2672 20.0772 33.7319 27.4197 34.0353C28.8874 34.0337 30.2945 33.4499 31.3323 32.4121C32.3701 31.3743 32.9538 29.9672 32.9554 28.4996C32.899 27.8574 32.9361 26.1508 31.9612 26.3932C31.8226 26.441 31.7085 26.5419 31.6442 26.6737C31.5798 26.8056 31.5704 26.9575 31.618 27.0963C31.7722 27.548 31.85 28.0223 31.8483 28.4996C31.6263 34.3658 23.2126 34.3658 22.9912 28.4996C22.9926 27.3255 23.4597 26.1999 24.2899 25.3697C25.1201 24.5395 26.2457 24.0725 27.4197 24.071Z" fill="white"/>
<path d="M32.7198 20.05C32.7551 19.9864 32.7775 19.9165 32.7858 19.8442C32.794 19.7719 32.788 19.6988 32.7679 19.6288C32.7479 19.5589 32.7142 19.4936 32.6689 19.4367C32.6236 19.3798 32.5676 19.3324 32.5039 19.2972C30.9476 18.4358 29.1982 17.9834 27.4194 17.9824C13.4683 18.5592 13.4683 38.4419 27.4194 39.0181C29.249 39.0192 31.0473 38.5427 32.6363 37.6358C34.2253 36.7288 35.5501 35.4228 36.4797 33.8469C37.4092 32.271 37.9114 30.4798 37.9364 28.6503C37.9615 26.8208 37.5086 25.0165 36.6225 23.4157C36.5513 23.2873 36.432 23.1923 36.2908 23.1519C36.1496 23.1114 35.9981 23.1286 35.8697 23.1998C35.7412 23.271 35.6463 23.3904 35.6058 23.5315C35.5653 23.6727 35.5826 23.8242 35.6538 23.9527C39.1634 30.0375 34.4497 38.0328 27.4194 37.911C24.9244 37.9082 22.5323 36.9158 20.7681 35.1516C19.0038 33.3873 18.0115 30.9953 18.0087 28.5003C17.888 21.4705 25.881 16.7563 31.967 20.2659C32.0305 20.3013 32.1005 20.3239 32.1728 20.3322C32.2451 20.3405 32.3183 20.3345 32.3883 20.3144C32.4582 20.2944 32.5235 20.2607 32.5804 20.2153C32.6373 20.1699 32.6847 20.1137 32.7198 20.05Z" fill="white"/>
<path d="M33.7992 18.4791L34.0023 21.1346L27.0284 28.1085C26.9276 28.2129 26.8718 28.3527 26.8731 28.4979C26.8743 28.643 26.9325 28.7819 27.0352 28.8845C27.1378 28.9871 27.2767 29.0453 27.4218 29.0466C27.567 29.0479 27.7068 28.9921 27.8112 28.8912L34.7851 21.9173L37.4406 22.1205C37.5201 22.1266 37.6 22.1153 37.6748 22.0876C37.7497 22.0599 37.8176 22.0164 37.874 21.96L41.9029 17.9311C41.9761 17.8556 42.0265 17.7609 42.0483 17.658C42.07 17.5551 42.0622 17.4482 42.0257 17.3496C41.9892 17.2509 41.9256 17.1646 41.8422 17.1006C41.7587 17.0366 41.6589 16.9975 41.5542 16.9878L39.1184 16.8012L38.9319 14.3655C38.9222 14.2608 38.8831 14.1609 38.8191 14.0775C38.7551 13.9941 38.6688 13.9304 38.5701 13.894C38.4715 13.8575 38.3645 13.8497 38.2616 13.8714C38.1587 13.8931 38.0641 13.9435 37.9886 14.0168L33.9597 18.0457C33.9032 18.102 33.8596 18.17 33.8319 18.2448C33.8042 18.3196 33.793 18.3996 33.7992 18.4791ZM37.92 15.6509C38.1414 18.2289 37.7052 17.775 40.2688 17.9997L37.2712 20.9973L35.0895 20.8301L34.9224 18.6491L37.92 15.6509Z" fill="white"/>
</g>
<defs>
<filter id="filter0_dd_248_145" x="0" y="0" width="60" height="60" filterUnits="userSpaceOnUse" color-interpolation-filters="sRGB">
<feFlood flood-opacity="0" result="BackgroundImageFix"/>
<feColorMatrix in="SourceAlpha" type="matrix" values="0 0 0 0 0 0 0 0 0 0 0 0 0 0 0 0 0 0 127 0" result="hardAlpha"/>
<feOffset dy="4"/>
<feGaussianBlur stdDeviation="2"/>
<feComposite in2="hardAlpha" operator="out"/>
<feColorMatrix type="matrix" values="0 0 0 0 0 0 0 0 0 0 0 0 0 0 0 0 0 0 0.12 0"/>
<feBlend mode="normal" in2="BackgroundImageFix" result="effect1_dropShadow_248_145"/>
<feColorMatrix in="SourceAlpha" type="matrix" values="0 0 0 0 0 0 0 0 0 0 0 0 0 0 0 0 0 0 127 0" result="hardAlpha"/>
<feOffset dx="4"/>
<feGaussianBlur stdDeviation="2"/>
<feComposite in2="hardAlpha" operator="out"/>
<feColorMatrix type="matrix" values="0 0 0 0 0 0 0 0 0 0 0 0 0 0 0 0 0 0 0.09 0"/>
<feBlend mode="normal" in2="effect1_dropShadow_248_145" result="effect2_dropShadow_248_145"/>
<feBlend mode="normal" in="SourceGraphic" in2="effect2_dropShadow_248_145" result="shape"/>
</filter>
</defs>
</svg>
