<svg width="60" height="60" viewBox="0 0 60 60" fill="none" xmlns="http://www.w3.org/2000/svg">
<g filter="url(#filter0_dd_250_227)">
<rect x="4" y="4" width="48" height="48" rx="8" fill="#19314B"/>
<g clip-path="url(#clip0_250_227)">
<path d="M12.8777 11.3232C12.5632 11.0087 12.0904 10.9146 11.6795 11.0845C11.2686 11.2545 11.0005 11.655 11 12.0996V42.8997C11 43.5072 11.4925 43.9997 12.1 43.9997H42.9C43.3449 43.9997 43.7457 43.7315 43.9162 43.3206C44.0864 42.9095 43.9922 42.4367 43.6777 42.122L12.8777 11.3232ZM12.1 42.8997L12.0962 12.0996H12.1L13.9107 13.9114L13.3606 14.4613C13.2178 14.5995 13.1604 14.8042 13.211 14.9963C13.2614 15.1886 13.4117 15.3387 13.6041 15.3888C13.7964 15.4391 14.0008 15.3815 14.1388 15.2385L14.6889 14.6886L16.1107 16.1114L15.5606 16.6615C15.4176 16.7994 15.3604 17.0039 15.4105 17.1962C15.4609 17.3886 15.6112 17.5386 15.8035 17.589C15.9956 17.6393 16.2003 17.5819 16.3383 17.4392L16.8884 16.8891L18.3106 18.3113L17.7605 18.8614C17.6175 18.9994 17.5604 19.2038 17.6107 19.3962C17.6608 19.5885 17.8111 19.7386 18.0035 19.789C18.1958 19.8393 18.4003 19.7822 18.5382 19.6392L19.0884 19.089L20.5106 20.5113L19.9605 21.0614C19.8177 21.1994 19.7603 21.4041 19.8107 21.5962C19.861 21.7885 20.0111 21.9388 20.2035 21.9889C20.3958 22.0393 20.6002 21.9821 20.7382 21.8391L21.2883 21.289L22.7106 22.7113L22.1607 23.2614C22.0177 23.3993 21.9603 23.604 22.0107 23.7961C22.061 23.9885 22.2111 24.1388 22.4034 24.1891C22.5958 24.2395 22.8002 24.1821 22.9382 24.0391L23.4883 23.489L24.9105 24.9115L24.3607 25.4613C24.2177 25.5996 24.1603 25.804 24.2106 25.9963C24.261 26.1884 24.411 26.3388 24.6034 26.3891C24.7957 26.4395 25.0002 26.3821 25.1384 26.2391L25.6883 25.6892L27.1105 27.1114L26.5606 27.6613C26.4176 27.7995 26.3602 28.004 26.4106 28.1963C26.4609 28.3887 26.611 28.5387 26.8034 28.5891C26.9957 28.6394 27.2001 28.582 27.3384 28.439L27.8882 27.8892L29.3105 29.3114L28.7606 29.8613C28.6176 29.9995 28.5602 30.2039 28.6106 30.3963C28.6609 30.5886 28.8112 30.7387 29.0033 30.789C29.1957 30.8394 29.4001 30.782 29.5383 30.639L30.0882 30.0891L31.5107 31.5114L30.9606 32.0615C30.8176 32.1995 30.7602 32.4039 30.8105 32.5962C30.8609 32.7886 31.0112 32.9387 31.2035 32.989C31.3956 33.0394 31.6003 32.982 31.7383 32.839L32.2884 32.2891L33.7107 33.7113L33.1605 34.2615C33.0175 34.3994 32.9604 34.6039 33.0107 34.7962C33.0608 34.9886 33.2112 35.1386 33.4035 35.189C33.5956 35.2393 33.8003 35.1819 33.9383 35.0392L34.4884 34.4891L35.9106 35.9113L35.3605 36.4614C35.2175 36.5994 35.1604 36.8038 35.2107 36.9962C35.2611 37.1885 35.4111 37.3388 35.6035 37.3889C35.7958 37.4393 36.0003 37.3821 36.1382 37.2391L36.6883 36.689L38.1106 38.1113L37.5605 38.6614C37.4177 38.7994 37.3603 39.004 37.4107 39.1961C37.461 39.3885 37.6111 39.5388 37.8034 39.5892C37.9958 39.6393 38.2002 39.5821 38.3382 39.4391L38.8883 38.889L40.3106 40.3115L39.7607 40.8614C39.6177 40.9996 39.5603 41.204 39.6106 41.3964C39.661 41.5885 39.8111 41.7388 40.0034 41.7891C40.1958 41.8395 40.4002 41.7821 40.5384 41.6391L41.0883 41.089L42.9 42.8997H12.1Z" fill="white"/>
<path d="M17.8437 23.8904C17.625 23.6618 17.2893 23.5885 16.995 23.7051C16.6947 23.8255 16.4983 24.1173 16.5 24.441V37.3863C16.4945 37.9946 16.9824 38.4928 17.5907 38.5001H30.5669C30.8804 38.4991 31.1631 38.3113 31.2852 38.0225C31.4119 37.7242 31.3469 37.3785 31.1203 37.1466L17.8437 23.8904ZM17.6056 37.4044C17.6015 37.3994 17.5995 37.3928 17.6 37.3863V25.2011L29.8172 37.4001L17.6056 37.4044Z" fill="white"/>
<path d="M26.4002 11C23.6665 11 21.4502 13.2161 21.4502 15.9501C21.4502 18.6838 23.6665 20.9001 26.4002 20.9001C29.134 20.9001 31.3503 18.6838 31.3503 15.9501C31.3473 13.2173 29.1327 11.003 26.4002 11ZM26.4002 19.8001C24.274 19.8001 22.5502 18.0762 22.5502 15.9501C22.5502 13.8236 24.274 12.1 26.4002 12.1C28.5264 12.1 30.2503 13.8236 30.2503 15.9501C30.2478 18.0752 28.5254 19.7976 26.4002 19.8001Z" fill="white"/>
<path d="M39.0501 11C36.3164 11 34.1001 13.2161 34.1001 15.9501C34.1001 18.6838 36.3164 20.9001 39.0501 20.9001C41.7841 20.9001 44.0002 18.6838 44.0002 15.9501C43.9972 13.2173 41.7829 11.003 39.0501 11ZM39.0501 19.8001C37.493 19.8001 36.0891 18.862 35.4931 17.4234C34.8975 15.9848 35.2268 14.3287 36.3278 13.2277C37.429 12.1267 39.0849 11.7971 40.5235 12.393C41.9621 12.989 42.9002 14.3929 42.9002 15.9501C42.8977 18.0752 41.1756 19.7976 39.0501 19.8001Z" fill="white"/>
<path d="M39.0501 23.6504C36.3164 23.6504 34.1001 25.8667 34.1001 28.6004C34.1001 31.3342 36.3164 33.5505 39.0501 33.5505C41.7841 33.5505 44.0002 31.3342 44.0002 28.6004C43.9972 25.868 41.7829 23.6534 39.0501 23.6504ZM39.0501 32.4505C37.493 32.4505 36.0891 31.5124 35.4931 30.0738C34.8975 28.6352 35.2268 26.9793 36.3278 25.8781C37.429 24.7771 39.0849 24.4475 40.5235 25.0434C41.9621 25.6394 42.9002 27.0432 42.9002 28.6004C42.8977 30.7256 41.1756 32.448 39.0501 32.4505Z" fill="white"/>
<path d="M28.6 15.4002H26.9499V13.7503C26.9499 13.4464 26.7036 13.2002 26.4 13.2002C26.0961 13.2002 25.8499 13.4464 25.8499 13.7503V15.4002H24.2C23.8961 15.4002 23.6499 15.6464 23.6499 15.9503C23.6499 16.2539 23.8961 16.5001 24.2 16.5001H25.8499V18.1502C25.8499 18.4539 26.0961 18.7001 26.4 18.7001C26.7036 18.7001 26.9499 18.4539 26.9499 18.1502V16.5001H28.6C28.9038 16.5001 29.1501 16.2539 29.1501 15.9503C29.1501 15.6464 28.9038 15.4002 28.6 15.4002Z" fill="white"/>
<path d="M41.0888 13.9111C40.8741 13.6963 40.5259 13.6963 40.3111 13.9111L39.05 15.1722L37.7889 13.9111C37.5731 13.7026 37.2299 13.7056 37.018 13.9176C36.8057 14.1299 36.8027 14.473 37.0112 14.6888L38.2723 15.9499L37.0112 17.211C36.8681 17.349 36.811 17.5537 36.8611 17.7458C36.9115 17.9381 37.0618 18.0884 37.2541 18.1388C37.4462 18.1889 37.6509 18.1317 37.7889 17.9887L39.05 16.7276L40.3111 17.9887C40.5269 18.1972 40.87 18.1942 41.0823 17.9819C41.2943 17.7699 41.2973 17.4268 41.0888 17.211L39.8277 15.9499L41.0888 14.6888C41.3036 14.474 41.3036 14.1258 41.0888 13.9111Z" fill="white"/>
<path d="M41.2501 28.0498H36.8502C36.5465 28.0498 36.3003 28.296 36.3003 28.5997C36.3003 28.9036 36.5465 29.1498 36.8502 29.1498H41.2501C41.554 29.1498 41.8002 28.9036 41.8002 28.5997C41.8002 28.296 41.554 28.0498 41.2501 28.0498Z" fill="white"/>
</g>
</g>
<defs>
<filter id="filter0_dd_250_227" x="0" y="0" width="60" height="60" filterUnits="userSpaceOnUse" color-interpolation-filters="sRGB">
<feFlood flood-opacity="0" result="BackgroundImageFix"/>
<feColorMatrix in="SourceAlpha" type="matrix" values="0 0 0 0 0 0 0 0 0 0 0 0 0 0 0 0 0 0 127 0" result="hardAlpha"/>
<feOffset dy="4"/>
<feGaussianBlur stdDeviation="2"/>
<feComposite in2="hardAlpha" operator="out"/>
<feColorMatrix type="matrix" values="0 0 0 0 0 0 0 0 0 0 0 0 0 0 0 0 0 0 0.12 0"/>
<feBlend mode="normal" in2="BackgroundImageFix" result="effect1_dropShadow_250_227"/>
<feColorMatrix in="SourceAlpha" type="matrix" values="0 0 0 0 0 0 0 0 0 0 0 0 0 0 0 0 0 0 127 0" result="hardAlpha"/>
<feOffset dx="4"/>
<feGaussianBlur stdDeviation="2"/>
<feComposite in2="hardAlpha" operator="out"/>
<feColorMatrix type="matrix" values="0 0 0 0 0 0 0 0 0 0 0 0 0 0 0 0 0 0 0.09 0"/>
<feBlend mode="normal" in2="effect1_dropShadow_250_227" result="effect2_dropShadow_250_227"/>
<feBlend mode="normal" in="SourceGraphic" in2="effect2_dropShadow_250_227" result="shape"/>
</filter>
<clipPath id="clip0_250_227">
<rect width="33" height="33" fill="white" transform="translate(11 11)"/>
</clipPath>
</defs>
</svg>
