<svg width="60" height="60" viewBox="0 0 60 60" fill="none" xmlns="http://www.w3.org/2000/svg">
<g filter="url(#filter0_dd_252_118)">
<rect x="4" y="4" width="48" height="48" rx="8" fill="#970C0C"/>
<g clip-path="url(#clip0_252_118)">
<path d="M33.1001 29.8164C33.4776 29.8164 33.7837 29.5104 33.7837 29.1328C33.7837 28.7553 33.4776 28.4492 33.1001 28.4492C32.7226 28.4492 32.4165 28.7553 32.4165 29.1328C32.4165 29.5104 32.7226 29.8164 33.1001 29.8164Z" fill="white"/>
<path d="M33.2174 32.0622C32.8442 32.0067 32.4963 32.2648 32.441 32.6382C32.2542 33.8998 31.1878 34.9461 29.5885 35.4372C27.879 35.9622 25.5062 35.7862 24.0587 34.2099C23.8033 33.9318 23.3708 33.9135 23.0928 34.1687C22.8147 34.4241 22.7963 34.8566 23.0517 35.1346C23.8896 36.0471 25.0277 36.6691 26.343 36.9331C26.8074 37.0264 27.2892 37.0727 27.7741 37.0727C28.5232 37.0727 29.2797 36.9623 29.9898 36.7442C32.1055 36.0946 33.5275 34.6345 33.7934 32.8385C33.8487 32.4651 33.5908 32.1175 33.2174 32.0622Z" fill="white"/>
<path d="M42.7188 26.0164C41.4763 24.576 39.7614 23.6421 37.6972 23.267C39.6735 21.9333 41.3781 20.606 42.5936 19.4479C44.4467 17.6821 45.0681 16.4412 44.5492 15.543C43.9719 14.5427 42.3052 14.5496 39.3038 15.565C36.7679 16.4229 33.6087 17.9129 30.4084 19.7607C29.8556 20.0798 29.308 20.4065 28.7722 20.7358C28.3748 19.6136 28.6369 18.3316 29.5137 17.22C30.1704 16.3874 30.317 15.3299 29.8964 14.46C29.4555 13.5483 28.4878 13.0025 27.3062 13H27.2741C23.1037 13 19.0247 14.6455 15.7883 17.6333C12.548 20.6249 10.5642 24.5851 10.2024 28.7843C9.76717 33.8415 11.3837 38.6495 14.7542 42.3225C18.0651 45.9307 22.759 48 27.6323 48C30.2559 48 32.7189 47.52 34.9527 46.5731C36.9953 45.7074 38.8091 44.4712 40.3439 42.8987C41.7669 41.4406 42.8889 39.7622 43.6787 37.9099C44.4302 36.1473 44.8408 34.2795 44.8662 32.5083C44.9032 29.9327 44.1606 27.6878 42.7188 26.0164ZM28.8521 22.2961C29.5756 21.8398 30.3291 21.3851 31.0919 20.9447C34.051 19.2363 36.9975 17.8291 39.3889 16.9823C42.0215 16.0503 43.0993 16.1111 43.3506 16.2314C43.3288 16.3905 43.1313 17.0982 41.4038 18.6891C39.9612 20.0175 37.8547 21.5797 35.4723 23.0879C34.7192 23.5649 33.9354 24.0389 33.1428 24.4966C32.0501 25.1273 30.9582 25.717 29.8865 26.257C29.6727 25.6329 29.3986 25.0274 29.0651 24.4496C28.7418 23.8896 28.3669 23.364 27.9478 22.8776C28.2444 22.6832 28.5462 22.4888 28.8521 22.2961ZM28.648 26.8634C26.7177 27.7788 24.9465 28.4767 23.5321 28.8815C23.4585 28.5279 23.329 28.1861 23.1453 27.8677C22.9712 27.5659 22.7528 27.2961 22.5003 27.0634C23.5592 26.0415 25.0496 24.8575 26.8045 23.6462C27.2119 24.1016 27.5731 24.5996 27.8811 25.133C28.1996 25.6847 28.4559 26.2649 28.648 26.8634ZM43.4992 32.4887C43.4017 39.291 37.3077 46.6328 27.6323 46.6328C23.1409 46.6328 18.8143 44.7249 15.7616 41.3983C12.6531 38.0108 11.1627 33.5727 11.5646 28.9016C12.255 20.8873 19.3022 14.3672 27.2741 14.3672H27.3048C27.9588 14.3686 28.4548 14.6193 28.6655 15.0552C28.8593 15.4559 28.7751 15.9487 28.4402 16.3733C27.2081 17.9353 26.8991 19.8564 27.5952 21.4762C27.2288 21.7123 26.8686 21.9495 26.5206 22.1847C26.5189 22.1858 26.5173 22.1869 26.5157 22.188C24.3419 23.6548 22.5064 25.1138 21.285 26.3416C20.3588 26.025 19.341 26.1173 18.476 26.6166C17.0558 27.437 15.1909 31.26 14.8316 32.018C14.7353 32.2209 14.745 32.4582 14.8572 32.6526C14.9695 32.8471 15.1702 32.9741 15.394 32.9922C15.7718 33.0229 16.8447 33.1003 18.0389 33.1003C19.4879 33.1003 21.1154 32.9862 21.8941 32.5365C22.7375 32.0496 23.3221 31.2362 23.5246 30.301C25.2009 29.861 27.3912 29.0001 29.7635 27.8444C31.0926 27.1975 32.4595 26.4695 33.8264 25.6807C34.5198 25.2802 35.2053 24.8674 35.8715 24.451C35.8755 24.4512 35.8794 24.4518 35.8835 24.452C41.5811 24.6154 43.5534 28.7106 43.4992 32.4887ZM22.2326 29.705C22.1888 30.3925 21.8068 31.0083 21.2105 31.3525C20.564 31.726 18.3431 31.7763 16.5196 31.6929C17.3588 30.0725 18.5126 28.1744 19.1598 27.8006C19.7707 27.4479 20.5094 27.4324 21.1362 27.7594C21.4806 27.9388 21.7658 28.2124 21.9611 28.5509C22.1641 28.9029 22.258 29.302 22.2326 29.705Z" fill="white"/>
<path d="M22.1626 17.2275C20.6549 17.2275 19.4282 18.4542 19.4282 19.9619C19.4282 21.4696 20.6549 22.6963 22.1626 22.6963C23.6703 22.6963 24.897 21.4696 24.897 19.9619C24.897 18.4542 23.6703 17.2275 22.1626 17.2275ZM22.1626 21.3291C21.4087 21.3291 20.7954 20.7158 20.7954 19.9619C20.7954 19.208 21.4087 18.5947 22.1626 18.5947C22.9165 18.5947 23.5298 19.208 23.5298 19.9619C23.5298 20.7158 22.9165 21.3291 22.1626 21.3291Z" fill="white"/>
<path d="M18.7446 35.5957C17.2369 35.5957 16.0103 36.8223 16.0103 38.3301C16.0103 39.8378 17.2369 41.0645 18.7446 41.0645C20.2524 41.0645 21.479 39.8378 21.479 38.3301C21.479 36.8223 20.2524 35.5957 18.7446 35.5957ZM18.7446 39.6973C17.9908 39.6973 17.3774 39.0839 17.3774 38.3301C17.3774 37.5762 17.9908 36.9629 18.7446 36.9629C19.4985 36.9629 20.1118 37.5762 20.1118 38.3301C20.1118 39.0839 19.4985 39.6973 18.7446 39.6973Z" fill="white"/>
<path d="M25.5806 39.6973C24.0728 39.6973 22.8462 40.9239 22.8462 42.4316C22.8462 43.9394 24.0728 45.166 25.5806 45.166C27.0883 45.166 28.3149 43.9394 28.3149 42.4316C28.3149 40.9239 27.0883 39.6973 25.5806 39.6973ZM25.5806 43.7988C24.8267 43.7988 24.2134 43.1855 24.2134 42.4316C24.2134 41.6778 24.8267 41.0645 25.5806 41.0645C26.3344 41.0645 26.9478 41.6778 26.9478 42.4316C26.9478 43.1855 26.3344 43.7988 25.5806 43.7988Z" fill="white"/>
<path d="M33.7837 38.3301C32.276 38.3301 31.0493 39.5567 31.0493 41.0645C31.0493 42.5722 32.276 43.7988 33.7837 43.7988C35.2914 43.7988 36.5181 42.5722 36.5181 41.0645C36.5181 39.5567 35.2914 38.3301 33.7837 38.3301ZM33.7837 42.4316C33.0298 42.4316 32.4165 41.8183 32.4165 41.0645C32.4165 40.3106 33.0298 39.6973 33.7837 39.6973C34.5376 39.6973 35.1509 40.3106 35.1509 41.0645C35.1509 41.8183 34.5376 42.4316 33.7837 42.4316Z" fill="white"/>
<path d="M39.2524 31.4941C37.7447 31.4941 36.5181 32.7208 36.5181 34.2285C36.5181 35.7362 37.7447 36.9629 39.2524 36.9629C40.7602 36.9629 41.9868 35.7362 41.9868 34.2285C41.9868 32.7208 40.7602 31.4941 39.2524 31.4941ZM39.2524 35.5957C38.4986 35.5957 37.8853 34.9824 37.8853 34.2285C37.8853 33.4746 38.4986 32.8613 39.2524 32.8613C40.0063 32.8613 40.6196 33.4746 40.6196 34.2285C40.6196 34.9824 40.0063 35.5957 39.2524 35.5957Z" fill="white"/>
</g>
</g>
<defs>
<filter id="filter0_dd_252_118" x="0" y="0" width="60" height="60" filterUnits="userSpaceOnUse" color-interpolation-filters="sRGB">
<feFlood flood-opacity="0" result="BackgroundImageFix"/>
<feColorMatrix in="SourceAlpha" type="matrix" values="0 0 0 0 0 0 0 0 0 0 0 0 0 0 0 0 0 0 127 0" result="hardAlpha"/>
<feOffset dy="4"/>
<feGaussianBlur stdDeviation="2"/>
<feComposite in2="hardAlpha" operator="out"/>
<feColorMatrix type="matrix" values="0 0 0 0 0 0 0 0 0 0 0 0 0 0 0 0 0 0 0.12 0"/>
<feBlend mode="normal" in2="BackgroundImageFix" result="effect1_dropShadow_252_118"/>
<feColorMatrix in="SourceAlpha" type="matrix" values="0 0 0 0 0 0 0 0 0 0 0 0 0 0 0 0 0 0 127 0" result="hardAlpha"/>
<feOffset dx="4"/>
<feGaussianBlur stdDeviation="2"/>
<feComposite in2="hardAlpha" operator="out"/>
<feColorMatrix type="matrix" values="0 0 0 0 0 0 0 0 0 0 0 0 0 0 0 0 0 0 0.09 0"/>
<feBlend mode="normal" in2="effect1_dropShadow_252_118" result="effect2_dropShadow_252_118"/>
<feBlend mode="normal" in="SourceGraphic" in2="effect2_dropShadow_252_118" result="shape"/>
</filter>
<clipPath id="clip0_252_118">
<rect width="35" height="35" fill="white" transform="translate(10 13)"/>
</clipPath>
</defs>
</svg>
