<svg width="60" height="60" viewBox="0 0 60 60" fill="none" xmlns="http://www.w3.org/2000/svg">
<g filter="url(#filter0_dd_252_154)">
<rect x="4" y="4" width="48" height="48" rx="8" fill="#19314B"/>
<path d="M13.2059 30.3276C13.2129 30.7509 13.3222 31.1662 13.5243 31.5381C13.7264 31.91 14.0154 32.2275 14.3668 32.4636C14.7181 32.6997 15.1213 32.8474 15.542 32.894C15.9627 32.9407 16.3885 32.885 16.783 32.7316C23.6601 29.9668 31.3397 29.9668 38.2168 32.7316C38.6129 32.8853 39.0403 32.9406 39.4624 32.8929C39.8846 32.8452 40.2889 32.6958 40.6406 32.4576C40.9924 32.2194 41.2812 31.8995 41.4822 31.5253C41.6833 31.151 41.7906 30.7336 41.795 30.3088L41.795 27.8557C41.795 24.0644 40.2889 20.4283 37.6081 17.7475C34.9272 15.0666 31.2912 13.5605 27.4999 13.5605C23.7086 13.5605 20.0726 15.0666 17.3917 17.7475C14.7109 20.4283 13.2048 24.0644 13.2048 27.8557C13.2082 27.8741 13.2009 30.3107 13.2059 30.3276ZM40.0356 31.5639C39.8313 31.7044 39.5952 31.7919 39.3486 31.8185C39.102 31.845 38.8528 31.8097 38.6232 31.7158C31.4852 28.8469 23.5146 28.8469 16.3765 31.7158C16.176 31.7947 15.961 31.8302 15.7457 31.8198C15.5305 31.8095 15.3198 31.7537 15.1278 31.656C14.9357 31.5583 14.7665 31.421 14.6313 31.2531C14.4962 31.0853 14.3982 30.8906 14.3438 30.6821C22.0385 27.1574 30.2906 26.5111 38.2193 29.7039L40.6561 30.6822C40.5663 31.0431 40.345 31.3575 40.0356 31.5639ZM40.7013 27.8557V29.5214C37.6311 28.1265 34.3712 27.1942 31.0278 26.7549C31.577 23.2583 33.1411 20 35.5258 17.3845C37.1349 18.615 38.4388 20.1997 39.3363 22.0157C40.2339 23.8317 40.7009 25.83 40.7013 27.8557ZM34.6145 16.7443C32.124 19.5185 30.4953 22.9578 29.9274 26.6424C28.3118 26.5099 26.688 26.5099 25.0724 26.6425C24.5045 22.9579 22.8758 19.5185 20.3853 16.7443C24.4277 13.9894 30.5721 13.9891 34.6145 16.7443ZM19.4739 17.3845C21.8587 20 23.4228 23.2583 23.972 26.7549C21.3654 27.0648 18.8107 27.7149 16.3731 28.6885L14.2985 29.5215C13.9862 24.6404 15.7272 20.2365 19.4739 17.3845Z" fill="white"/>
<path d="M34.4793 36.4521C29.7455 36.535 29.7461 41.4939 34.4794 41.5764C39.2131 41.4936 39.2125 36.5347 34.4793 36.4521ZM34.4793 40.4827C31.2054 40.3926 31.2058 37.6358 34.4794 37.5459C37.7533 37.636 37.7529 40.3928 34.4793 40.4827Z" fill="white"/>
<path d="M20.5203 36.4521C15.7865 36.535 15.7872 41.4939 20.5204 41.5764C25.2542 41.4936 25.2535 36.5347 20.5203 36.4521ZM20.5203 40.4827C17.2464 40.3926 17.2468 37.6358 20.5204 37.5459C23.7943 37.636 23.7939 40.3928 20.5203 40.4827Z" fill="white"/>
<path d="M40.9829 36.5944L39.8234 36.7262C37.5397 33.8102 31.3346 33.9276 29.2858 36.9927L25.7138 36.9926C23.6707 33.9287 17.4528 33.8109 15.1763 36.7264L14.0194 36.5947C13.7891 36.57 13.5562 36.5939 13.3358 36.6648C13.1153 36.7357 12.9122 36.8521 12.7395 37.0065C12.5668 37.1608 12.4284 37.3497 12.3333 37.5608C12.2382 37.772 12.1885 38.0008 12.1873 38.2324C12.2309 39.0636 11.9604 40.4392 12.7401 41.0287C13.336 41.6574 14.4293 41.374 15.175 41.3002C15.8326 42.0063 16.6343 42.5627 17.5257 42.9317C18.4172 43.3007 19.3776 43.4737 20.3418 43.4389C22.6811 43.4389 24.7099 42.4597 25.7149 41.0337H29.2848C30.2897 42.4597 32.3186 43.4389 34.6578 43.4389C35.622 43.4737 36.5824 43.3007 37.4739 42.9317C38.3654 42.5627 39.1671 42.0063 39.8247 41.3003C40.5581 41.374 41.6646 41.6552 42.2596 41.0286C43.0384 40.4374 42.7702 39.0646 42.8123 38.2324C42.8113 38.001 42.7617 37.7724 42.6668 37.5613C42.5719 37.3503 42.4338 37.1615 42.2614 37.0071C42.089 36.8528 41.8861 36.7363 41.6659 36.6652C41.4457 36.5941 41.213 36.57 40.9829 36.5944ZM13.8907 40.3454C13.814 40.3536 13.7365 40.3456 13.6631 40.3219C13.5897 40.2983 13.522 40.2594 13.4646 40.208C13.4071 40.1566 13.3611 40.0936 13.3295 40.0233C13.2979 39.9529 13.2814 39.8767 13.2811 39.7996V38.2324C13.2807 38.1546 13.2968 38.0776 13.3283 38.0065C13.3598 37.9354 13.406 37.8717 13.4638 37.8197C13.5216 37.7676 13.5898 37.7284 13.6638 37.7045C13.7378 37.6807 13.8161 37.6727 13.8934 37.6812L14.5481 37.7557C14.3828 38.1543 14.2977 38.5816 14.2976 39.0131C14.2975 39.4447 14.3824 39.872 14.5475 40.2707L13.8907 40.3454ZM20.3419 42.3451C17.611 42.3451 15.3893 40.8509 15.3893 39.014C15.5424 35.1421 23.1667 34.5899 24.9466 37.7962C26.3184 40.4938 23.2074 42.3543 20.3419 42.3451ZM26.2524 39.94C26.4319 39.3351 26.4318 38.6911 26.2518 38.0863H28.7479C28.5679 38.6911 28.5677 39.3351 28.7473 39.94H26.2524ZM34.6578 42.3451C31.7933 42.3552 28.6807 40.493 30.053 37.7961C31.8322 34.5893 39.4601 35.1436 39.6104 39.0141C39.6104 40.8509 37.3887 42.3451 34.6578 42.3451ZM41.7186 39.7996C41.7183 39.8769 41.7017 39.9534 41.67 40.0239C41.6382 40.0944 41.5919 40.1575 41.5341 40.209C41.4764 40.2604 41.4084 40.2991 41.3347 40.3226C41.261 40.3461 41.1832 40.3537 41.1063 40.3451L40.4521 40.2707C40.6172 39.872 40.7021 39.4447 40.702 39.0131C40.702 38.5816 40.6168 38.1543 40.4515 37.7557C40.7387 37.7513 41.3009 37.559 41.5316 37.8145C41.5909 37.8667 41.6383 37.931 41.6705 38.0031C41.7028 38.0752 41.7192 38.1534 41.7186 38.2324V39.7996Z" fill="white"/>
</g>
<defs>
<filter id="filter0_dd_252_154" x="0" y="0" width="60" height="60" filterUnits="userSpaceOnUse" color-interpolation-filters="sRGB">
<feFlood flood-opacity="0" result="BackgroundImageFix"/>
<feColorMatrix in="SourceAlpha" type="matrix" values="0 0 0 0 0 0 0 0 0 0 0 0 0 0 0 0 0 0 127 0" result="hardAlpha"/>
<feOffset dy="4"/>
<feGaussianBlur stdDeviation="2"/>
<feComposite in2="hardAlpha" operator="out"/>
<feColorMatrix type="matrix" values="0 0 0 0 0 0 0 0 0 0 0 0 0 0 0 0 0 0 0.12 0"/>
<feBlend mode="normal" in2="BackgroundImageFix" result="effect1_dropShadow_252_154"/>
<feColorMatrix in="SourceAlpha" type="matrix" values="0 0 0 0 0 0 0 0 0 0 0 0 0 0 0 0 0 0 127 0" result="hardAlpha"/>
<feOffset dx="4"/>
<feGaussianBlur stdDeviation="2"/>
<feComposite in2="hardAlpha" operator="out"/>
<feColorMatrix type="matrix" values="0 0 0 0 0 0 0 0 0 0 0 0 0 0 0 0 0 0 0.09 0"/>
<feBlend mode="normal" in2="effect1_dropShadow_252_154" result="effect2_dropShadow_252_154"/>
<feBlend mode="normal" in="SourceGraphic" in2="effect2_dropShadow_252_154" result="shape"/>
</filter>
</defs>
</svg>
