<svg width="1454" height="49" viewBox="0 0 1454 49" fill="none" xmlns="http://www.w3.org/2000/svg">
<path d="M1454 48.8722H0V0C0 0 53.6162 27.3109 90.875 27.3109C128.134 27.3109 144.491 0 181.75 0C219.009 0 235.366 27.3109 272.625 27.3109C309.884 27.3109 326.241 0 363.5 0C400.759 0 417.116 27.3109 454.375 27.3109C491.634 27.3109 507.991 0 545.25 0C582.509 0 598.866 27.3109 636.125 27.3109C673.384 27.3109 689.741 0 727 0C764.259 0 780.616 27.3109 817.875 27.3109C855.134 27.3109 871.491 0 908.75 0C946.009 0 962.366 27.3109 999.625 27.3109C1036.88 27.3109 1053.24 0 1090.5 0C1127.76 0 1144.12 27.3109 1181.38 27.3109C1218.63 27.3109 1234.99 0 1272.25 0C1309.51 0 1325.87 27.3109 1363.12 27.3109C1400.38 27.3109 1454 0 1454 0V48.8722Z" fill="#333F57"/>
</svg>
