<svg width="1456" height="49" viewBox="0 0 1456 49" fill="none" xmlns="http://www.w3.org/2000/svg">
<path d="M0 0H1456V48.8722C1456 48.8722 1402.31 21.5613 1365 21.5613C1327.69 21.5613 1311.31 48.8722 1274 48.8722C1236.69 48.8722 1220.31 21.5613 1183 21.5613C1145.69 21.5613 1129.31 48.8722 1092 48.8722C1054.69 48.8722 1038.31 21.5613 1001 21.5613C963.69 21.5613 947.31 48.8722 910 48.8722C872.69 48.8722 856.31 21.5613 819 21.5613C781.69 21.5613 765.31 48.8722 728 48.8722C690.69 48.8722 674.31 21.5613 637 21.5613C599.69 21.5613 583.31 48.8722 546 48.8722C508.69 48.8722 492.31 21.5613 455 21.5613C417.69 21.5613 401.31 48.8722 364 48.8722C326.69 48.8722 310.31 21.5613 273 21.5613C235.69 21.5613 219.31 48.8722 182 48.8722C144.69 48.8722 128.31 21.5613 91 21.5613C53.6899 21.5613 0 48.8722 0 48.8722V0Z" fill="#333F57"/>
</svg>
