<svg width="1459" height="52" viewBox="0 0 1459 52" fill="none" xmlns="http://www.w3.org/2000/svg">
<path d="M0 0H1459V52C1459 52 1405.2 22.9412 1367.81 22.9412C1330.43 22.9412 1314.01 52 1276.62 52C1239.24 52 1222.82 22.9412 1185.44 22.9412C1148.05 22.9412 1131.64 52 1094.25 52C1056.86 52 1040.45 22.9412 1003.06 22.9412C965.676 22.9412 949.262 52 911.875 52C874.488 52 858.074 22.9412 820.688 22.9412C783.301 22.9412 766.887 52 729.5 52C692.113 52 675.699 22.9412 638.312 22.9412C600.926 22.9412 584.512 52 547.125 52C509.738 52 493.324 22.9412 455.938 22.9412C418.551 22.9412 402.137 52 364.75 52C327.363 52 310.949 22.9412 273.562 22.9412C236.176 22.9412 219.762 52 182.375 52C144.988 52 128.574 22.9412 91.1875 22.9412C53.8006 22.9412 0 52 0 52V0Z" fill="#F4EEE5"/>
</svg>
