<svg width="1457" height="52" viewBox="0 0 1457 52" fill="none" xmlns="http://www.w3.org/2000/svg">
<path d="M1457 52H0V0C0 0 53.7267 29.0588 91.0622 29.0588C128.398 29.0588 144.789 0 182.124 0C219.46 0 235.851 29.0588 273.187 29.0588C310.522 29.0588 326.913 0 364.249 0C401.584 0 417.976 29.0588 455.311 29.0588C492.647 29.0588 509.038 0 546.373 0C583.709 0 600.1 29.0588 637.436 29.0588C674.771 29.0588 691.162 0 728.498 0C765.833 0 782.225 29.0588 819.56 29.0588C856.896 29.0588 873.287 0 910.622 0C947.958 0 964.349 29.0588 1001.68 29.0588C1039.02 29.0588 1055.41 0 1092.75 0C1130.08 0 1146.47 29.0588 1183.81 29.0588C1221.14 29.0588 1237.54 0 1274.87 0C1312.21 0 1328.6 29.0588 1365.93 29.0588C1403.27 29.0588 1457 0 1457 0V52Z" fill="#F4EEE5"/>
</svg>
