<svg width="100" height="100" viewBox="0 0 100 100" fill="none" xmlns="http://www.w3.org/2000/svg">
<rect width="100" height="100" rx="50" fill="#E8F7FF"/>
<g clip-path="url(#clip0_1_447)">
<path d="M49.977 26.6665C37.097 26.6665 26.667 37.1198 26.667 49.9998C26.667 62.8798 37.097 73.3332 49.977 73.3332C62.8803 73.3332 73.3337 62.8798 73.3337 49.9998C73.3337 37.1198 62.8803 26.6665 49.977 26.6665ZM50.0003 68.6665C39.687 68.6665 31.3337 60.3132 31.3337 49.9998C31.3337 39.6865 39.687 31.3332 50.0003 31.3332C60.3137 31.3332 68.667 39.6865 68.667 49.9998C68.667 60.3132 60.3137 68.6665 50.0003 68.6665ZM58.167 47.6665C60.1037 47.6665 61.667 46.1032 61.667 44.1665C61.667 42.2298 60.1037 40.6665 58.167 40.6665C56.2303 40.6665 54.667 42.2298 54.667 44.1665C54.667 46.1032 56.2303 47.6665 58.167 47.6665ZM41.8337 47.6665C43.7703 47.6665 45.3337 46.1032 45.3337 44.1665C45.3337 42.2298 43.7703 40.6665 41.8337 40.6665C39.897 40.6665 38.3337 42.2298 38.3337 44.1665C38.3337 46.1032 39.897 47.6665 41.8337 47.6665ZM50.0003 62.8332C55.437 62.8332 60.057 59.4265 61.9237 54.6665H38.077C39.9437 59.4265 44.5637 62.8332 50.0003 62.8332Z" fill="#03A4FF"/>
</g>
<defs>
<clipPath id="clip0_1_447">
<rect width="56" height="56" fill="white" transform="translate(22 22)"/>
</clipPath>
</defs>
</svg>
