<svg width="100" height="100" viewBox="0 0 100 100" fill="none" xmlns="http://www.w3.org/2000/svg">
<rect width="100" height="100" rx="50" fill="#FCF4EB"/>
<g clip-path="url(#clip0_1_433)">
<path d="M43.0001 49.4165C41.3901 49.4165 40.0835 50.7232 40.0835 52.3332C40.0835 53.9432 41.3901 55.2498 43.0001 55.2498C44.6101 55.2498 45.9168 53.9432 45.9168 52.3332C45.9168 50.7232 44.6101 49.4165 43.0001 49.4165ZM57.0001 49.4165C55.3901 49.4165 54.0835 50.7232 54.0835 52.3332C54.0835 53.9432 55.3901 55.2498 57.0001 55.2498C58.6101 55.2498 59.9168 53.9432 59.9168 52.3332C59.9168 50.7232 58.6101 49.4165 57.0001 49.4165ZM50.0001 26.6665C37.1201 26.6665 26.6668 37.1198 26.6668 49.9998C26.6668 62.8798 37.1201 73.3332 50.0001 73.3332C62.8801 73.3332 73.3335 62.8798 73.3335 49.9998C73.3335 37.1198 62.8801 26.6665 50.0001 26.6665ZM50.0001 68.6665C39.7101 68.6665 31.3335 60.2898 31.3335 49.9998C31.3335 49.3232 31.3801 48.6465 31.4501 47.9932C36.9568 45.5432 41.3201 41.0398 43.6068 35.4632C47.8301 41.4365 54.7835 45.3332 62.6468 45.3332C64.4668 45.3332 66.2168 45.1232 67.8968 44.7265C68.3868 46.3832 68.6668 48.1565 68.6668 49.9998C68.6668 60.2898 60.2901 68.6665 50.0001 68.6665Z" fill="#FF8700"/>
</g>
<defs>
<clipPath id="clip0_1_433">
<rect width="56" height="56" fill="white" transform="translate(21.9998 22)"/>
</clipPath>
</defs>
</svg>
