<svg width="122" height="123" viewBox="0 0 122 123" fill="none" xmlns="http://www.w3.org/2000/svg">
<g clip-path="url(#clip0_1_397)">
<path d="M33.9612 50.3004C40.4857 45.2935 46.233 39.3226 50.9825 32.617C51.7331 31.5626 50.0678 30.6612 49.3219 31.7155C44.7827 38.1292 39.2921 43.8433 33.0597 48.6398C32.0441 49.4196 32.9382 51.0921 33.9612 50.3004Z" fill="white"/>
<path d="M74.7426 96.7596C77.737 94.9933 80.4229 92.751 82.6952 90.1206C83.537 89.1475 82.1162 87.7122 81.2672 88.6926C79.1195 91.1917 76.5776 93.3227 73.7417 95.0017C72.6274 95.6635 73.6259 97.4189 74.7401 96.7571L74.7426 96.7596Z" fill="white"/>
<path d="M90.6805 82.2383L94.9183 76.5429C95.6822 75.5165 93.9293 74.524 93.1677 75.5431L88.93 81.2386C88.1661 82.2649 89.9214 83.2599 90.6805 82.2383Z" fill="white"/>
<path d="M46.683 71.0596C48.9781 73.5134 51.4174 75.8304 53.9828 77.9933C54.9634 78.8192 56.167 77.635 55.1767 76.7993C52.6113 74.6365 50.172 72.3195 47.8769 69.8657C46.9896 68.9173 45.7981 70.1137 46.683 71.0596Z" fill="white"/>
<path d="M60.251 82.4694L60.9141 82.1787C62.2081 81.6039 61.9514 79.6946 60.6609 80.2618L59.9999 80.5547C58.7037 81.1274 58.9632 83.0338 60.251 82.4694Z" fill="white"/>
<path d="M88.6498 95.2148C87.182 96.5657 84.5223 100.034 82.6234 100.408C81.2878 100.673 78.3792 98.5321 77.194 97.8572C69.6095 93.5793 62.4781 88.5568 55.9032 82.8625C43.2296 71.7791 34.0094 56.5995 31.3105 39.7728C31.0565 38.1862 29.3378 30.1665 30.9859 28.6888C32.4038 27.4218 40.9872 30.4175 42.8043 30.9912C59.0483 36.0598 74.0686 46.379 83.9958 60.1651C88.4584 66.4416 92.5516 72.976 96.255 79.736C97.0603 81.1852 98.9385 83.5042 99.0907 85.2169C98.9799 84.1153 98.8587 84.7818 97.6179 86.0129C96.6743 86.9566 95.7938 87.9734 94.9208 88.9827C94.0477 89.9921 95.4843 91.4138 96.3499 90.4118C97.4735 89.1081 100.461 87.1524 101.017 85.6669C101.472 84.4524 100.243 82.8571 99.731 81.8596C96.078 74.8614 91.9948 68.1015 87.5045 61.618C76.9543 46.2628 61.6201 34.8577 43.8319 29.1358C40.8761 28.1962 33.4323 25.176 30.2105 26.9078C27.8718 28.1704 28.571 32.5353 28.6975 34.6681C29.7508 52.3954 38.8069 69.2436 51.2897 81.3797C59.0482 88.9203 68.3403 95.4581 77.8904 100.55C79.2054 101.256 81.3207 102.836 82.964 102.488C85.4413 101.958 88.3168 98.2355 90.089 96.6045C91.0642 95.7072 89.6326 94.2806 88.6599 95.1754L88.6498 95.2148Z" fill="white"/>
<path d="M32.3245 45.8094C37.8371 41.8579 42.8125 37.1969 47.1171 31.9514C47.9561 30.9274 46.5348 29.4911 45.6883 30.5227C41.5153 35.6364 36.6881 40.1835 31.3364 44.0421C30.2639 44.8127 31.2348 46.5778 32.3245 45.8094Z" fill="white"/>
<path d="M44.3826 43.7642C40.5938 46.8665 39.5039 52.8808 42.5792 57.0022C45.6546 61.1235 51.7675 61.3478 55.4107 58.1046C58.8963 54.9994 59.9175 49.7057 57.4777 45.5564C54.5877 40.6373 48.8009 40.7537 44.6061 43.6099C43.5397 44.3305 44.5649 46.1208 45.6237 45.383C49.0414 43.0717 53.6784 42.6529 55.9481 46.913C57.5926 50.0103 56.8281 53.8125 54.4605 56.2197C51.8192 58.9054 47.203 59.1997 44.5056 56.2069C41.5585 52.9305 42.7691 47.7585 45.8521 45.2336C46.8317 44.3972 45.3747 42.9499 44.3826 43.7642Z" fill="white"/>
<path d="M79.2374 98.4032C81.5525 96.8432 83.6699 95.0329 85.56 92.9979C86.443 92.0456 84.7496 90.3472 83.8698 91.3077C82.1109 93.2182 80.1401 94.9205 77.9847 96.391C76.911 97.1186 78.1564 99.1381 79.2374 98.4032Z" fill="white"/>
<path d="M92.2602 86.0106C94.2688 84.4596 96.0623 82.6361 97.5788 80.603C98.3295 79.5898 96.7562 78.7658 96.0103 79.7743C94.7072 81.5256 93.1673 83.0984 91.4428 84.4392C90.4554 85.2064 91.2749 86.7799 92.2715 86.0077L92.2602 86.0106Z" fill="white"/>
<path d="M78.484 84.8296C79.1882 87.1538 81.7622 89.1418 83.4227 90.7531C86.3581 93.5733 89.4664 96.208 92.7301 98.6424C94.361 99.8548 102.854 106.236 102.245 100.038C101.933 96.7715 98.9592 93.2409 97.2111 90.6607C94.8365 87.1635 92.2925 83.7725 89.6401 80.4849C88.1911 78.6961 86.993 76.7101 84.3997 77.2731C81.299 77.9394 78.4514 81.4881 78.4438 84.5826C78.4413 85.8899 80.4733 85.8784 80.4758 84.5711C80.486 81.0213 84.5297 78.0827 87.1057 80.5996C88.8294 82.2839 90.2661 84.5281 91.7045 86.454C93.4005 88.7261 95.0571 91.0376 96.5982 93.4207C97.4669 94.7819 100.409 98.3494 100.167 100.077C100.014 101.125 100.022 100.577 98.8489 100.206C97.9667 99.925 97.0846 99.2005 96.3187 98.6956C93.9972 97.132 91.7726 95.4303 89.6567 93.5994C87.0618 91.4083 81.4957 87.7675 80.443 84.3118C80.0755 83.058 78.1067 83.5807 78.484 84.8296Z" fill="white"/>
<path d="M65.8601 90.6095C62.6156 92.6565 59.4929 96.4195 61.3957 100.269C63.9716 105.514 71.7393 110.689 76.8218 113.299C78.7572 114.297 82.914 115.477 81.9598 111.764C80.8933 107.615 69.7161 102.042 73.082 97.1806C73.8491 96.0762 72.0699 95.089 71.3053 96.1909C69.4916 98.8061 71.076 101.601 72.6498 103.806C73.2644 104.657 80.2488 111.647 79.8743 112.251C79.1662 113.394 68.693 104.893 67.9194 104.205C65.6819 102.215 61.7956 99.4688 63.3416 95.8896C63.9521 94.4823 65.5841 93.1583 66.85 92.3812C67.9883 91.6632 67.0011 89.884 65.8602 90.6045L65.8601 90.6095Z" fill="white"/>
<path d="M91.1854 67.665C92.7545 66.2815 94.5886 64.6867 96.5756 63.945C99.969 62.6809 101.349 65.2323 103.201 67.7656C104.85 70.0239 106.358 72.3792 107.781 74.7745C108.838 76.5504 109.631 79.0052 110.895 80.6028C111.655 81.5575 111.742 81.2211 111.218 80.2163C110.766 79.3402 109.42 78.3708 108.734 77.6461C106.969 75.7818 105.223 73.6115 103.085 72.1596C100.055 70.0817 97.1387 71.5133 94.8421 74.0981C93.9981 75.0447 95.4267 76.4828 96.2754 75.5314C100.203 71.1155 103.258 74.7417 106.27 77.9068C107.443 79.1368 109.725 82.6327 111.553 82.9041C115.191 83.4417 111.831 77.9431 111.191 76.7512C108.809 72.3354 105.288 64.7563 100.783 62.0233C97.0462 59.758 92.4205 63.8806 89.7447 66.2243C88.7909 67.0659 90.2266 68.4968 91.1781 67.6577L91.1854 67.665Z" fill="white"/>
<path d="M16.0903 27.6251C17.4198 28.1855 18.786 28.6452 20.177 29.0002C21.5163 29.337 22.0117 27.3012 20.6619 26.9488C19.2716 26.593 17.9063 26.1324 16.5777 25.5713C16.0385 25.3429 15.4265 25.8035 15.3142 26.3127C15.2549 26.5825 15.3027 26.869 15.4477 27.1128C15.5926 27.3567 15.8236 27.5392 16.0928 27.6226L16.0903 27.6251Z" fill="white"/>
<path d="M21.1483 20.1364L23.3986 22.3866C24.256 23.244 25.6702 21.8298 24.8128 20.9724L22.5625 18.7222C21.7074 17.867 20.2909 19.2789 21.1483 20.1364Z" fill="white"/>
<path d="M28.594 15.205C29.0376 16.1706 29.335 17.2087 29.4773 18.2884C29.6728 19.6498 31.8096 18.9707 31.6153 17.6379C31.4332 16.3845 31.0724 15.1814 30.5436 14.0636C29.9781 12.8491 28.0398 14.0238 28.6003 15.2334L28.594 15.205Z" fill="white"/>
</g>
<defs>
<clipPath id="clip0_1_397">
<rect width="56" height="116" fill="white" transform="translate(0 40) rotate(-45)"/>
</clipPath>
</defs>
</svg>
