<svg width="112" height="123" viewBox="0 0 112 123" fill="none" xmlns="http://www.w3.org/2000/svg">
<g clip-path="url(#clip0_1_378)">
<path d="M22.0935 64.7396L20.9517 67.6111C20.8356 67.8367 20.7952 68.0982 20.839 68.3416C20.8827 68.5851 21.0072 68.792 21.1868 68.9198C21.5276 69.1418 22.1511 69.0146 22.3425 68.5374L23.4843 65.6659C23.6004 65.4403 23.6408 65.1788 23.5971 64.9353C23.5533 64.6919 23.4289 64.4849 23.2492 64.3571C22.9085 64.1352 22.2849 64.2624 22.0892 64.7557L22.0935 64.7396Z" fill="white"/>
<path d="M19.8869 71.632C19.6021 72.3941 19.4514 73.2001 19.4416 74.0129C19.4164 75.2021 21.2367 75.1807 21.2627 73.9885C21.2776 73.342 21.4068 72.7024 21.644 72.1002C21.7014 71.8634 21.6671 71.6141 21.5481 71.4041C21.4291 71.1941 21.2347 71.0396 21.0052 70.9726C20.7725 70.9156 20.5263 70.9523 20.3179 71.0752C20.1095 71.198 19.9551 71.3975 19.8869 71.632Z" fill="white"/>
<path d="M23.5204 69.5195L22.9786 71.5529C22.6538 72.7716 24.5855 73.2898 24.9111 72.0679L25.453 70.0345C25.7786 68.8125 23.8461 68.2975 23.5204 69.5195Z" fill="white"/>
<path d="M37.7623 55.1876C31.02 50.8112 27.9942 42.8789 30.7147 35.1773C30.9775 34.4314 30.1666 33.7663 29.4755 33.9456C22.0188 35.8778 19.8968 26.6613 23.3726 21.648C26.2669 17.4559 34.8091 16.8783 36.2674 22.7968C36.3193 22.9629 36.4123 23.1132 36.5378 23.2336C36.6632 23.3539 36.8171 23.4405 36.985 23.4853C37.1529 23.53 37.3294 23.5315 37.4982 23.4895C37.6669 23.4475 37.8223 23.3634 37.95 23.2451C44.9714 16.7039 59.2962 16.1815 66.9474 21.8155C67.4794 22.2066 68.2843 21.7869 68.4295 21.2021C69.8166 15.65 78.0428 13.9513 82.0521 17.7525C86.1535 21.6354 84.8452 30.7466 78.4115 31.1343C78.2379 31.1421 78.069 31.1939 77.9206 31.2847C77.7722 31.3755 77.6491 31.5023 77.5627 31.6535C77.4763 31.8047 77.4294 31.9753 77.4265 32.1494C77.4235 32.3236 77.4645 32.4956 77.5457 32.6494C81.2598 40.0527 80.4972 50.5172 73.5025 55.651C66.6099 60.7087 55.4979 62.3795 47.4985 59.2394C46.2954 58.7656 45.7841 60.7244 46.9781 61.1923C55.8983 64.6917 69.0183 62.6082 76.1716 56.1057C82.7761 50.1018 83.1111 39.2811 79.2899 31.6392L78.4274 33.1552C86.0804 32.7005 88.6897 22.7352 84.2788 17.2129C79.5468 11.295 68.3671 13.1401 66.4814 20.683L67.9669 20.0705C59.5614 13.8791 44.1941 14.6725 36.5298 21.812L38.2124 22.2604C36.3402 14.6141 25.4614 14.9431 21.6325 20.6284C17.2188 27.1876 20.7251 38.3051 30.005 35.8932L28.7633 34.6572C25.7328 43.2418 29.2961 52.1049 36.7295 56.9291C37.8205 57.6367 38.8334 55.8899 37.749 55.184L37.7623 55.1876Z" fill="white"/>
<path d="M31.5382 50.2895C26.9663 53.1639 23.2385 57.6452 20.4671 62.1652C16.914 67.9191 11.8151 78.4487 15.5707 85.2325C17.7121 89.0915 22.2092 88.9115 25.406 86.5176C30.1909 82.9381 32.832 76.1828 34.5928 70.6813C34.9898 69.4476 33.0192 68.9261 32.6231 70.1564C31.3193 74.1993 29.5495 78.2917 27.0609 81.7638C23.4938 86.7344 16.802 88.4202 16.5275 80.3742C16.1823 70.0983 23.8535 57.522 32.5781 52.0513C33.678 51.3629 32.6565 49.613 31.5515 50.3072L31.5382 50.2895Z" fill="white"/>
<path d="M75.0772 56.0804C80.1233 62.7978 84.1052 70.257 84.1363 78.7649C84.1512 80.0868 86.2203 80.0785 86.2166 78.756C86.2032 69.9062 82.1354 62.0666 76.8717 55.0638C76.081 54.0081 74.2771 55.0186 75.0772 56.0804Z" fill="white"/>
<path d="M72.5164 85.3334C75.8395 82.5942 79.7308 80.7837 84.1071 80.4062C85.116 80.3213 86.1305 80.3103 87.1423 80.3733L92.0712 85.4799C92.6453 87.5348 91.0503 91.1284 90.3142 93.0025C89.1926 95.8448 88.5936 97.6551 85.6808 98.9097C82.7679 100.164 80.6764 99.9222 77.5016 99.2624C73.0703 98.343 68.8372 96.5022 64.7321 94.6596C63.5317 94.1213 62.491 95.8533 63.6972 96.4111C70.2295 99.341 78.2044 103.103 85.5949 101.706C91.112 100.669 93.2169 92.6334 93.9208 87.9284C96.0742 73.5198 77.7814 78.3409 71.0562 83.8841C70.0395 84.7199 71.511 86.1543 72.5129 85.3468L72.5164 85.3334Z" fill="white"/>
<path d="M89.7241 80.0021C84.9475 79.7965 81.544 85.0652 79.7608 88.7024C77.5906 93.1365 77.8944 97.7283 80.4479 102.023C81.1275 103.168 82.935 102.174 82.2553 101.028C80.2015 97.5782 79.8409 93.9247 81.3955 90.3084C82.6716 87.3187 85.8172 81.8603 89.7783 82.0301C91.1305 82.088 91.0902 80.0638 89.738 80.0058L89.7241 80.0021Z" fill="white"/>
<path d="M73.6517 69.1427C76.2536 72.7928 77.9151 77.0933 78.4825 81.646L80.2669 80.8483L80.0789 80.5686C79.3762 79.5205 77.6769 80.549 78.3874 81.6064L78.5754 81.886C79.2227 82.8476 80.5038 82.2242 80.3607 81.0849C79.7635 76.3581 78.0349 71.8938 75.3337 68.1024C74.608 67.0769 72.9086 68.1054 73.6421 69.1402L73.6517 69.1427Z" fill="white"/>
<path d="M24.8506 84.4862C22.1798 91.9562 19.612 106.576 31.4907 107.739C39.3485 108.516 48.8017 103.913 48.1452 95.141C47.6128 88.0097 41.8661 82.8225 34.6264 83.994C27.0595 85.2181 23.6844 92.4144 22.83 99.28C22.6691 100.573 24.7092 100.547 24.8708 99.2653C25.4369 94.6968 27.1924 89.6218 31.4336 87.2108C37.4864 83.7679 44.3938 86.9765 45.8651 93.6096C47.4968 100.991 41.4287 104.856 34.6334 105.548C21.6863 106.867 24.0521 92.7631 26.8248 85.0051C27.2648 83.7725 25.2907 83.2536 24.8524 84.4795L24.8506 84.4862Z" fill="white"/>
<path d="M47.7554 99.7684C55.0654 99.1362 62.7571 99.0166 69.2299 94.9543C70.3306 94.2675 69.3464 92.5062 68.2448 93.1964C62.0756 97.0657 54.7183 97.1267 47.7528 97.7281C46.483 97.8401 46.4783 99.8821 47.7554 99.7684Z" fill="white"/>
<path d="M56.6293 46.5084C56.6577 49.7595 62.7946 50.2956 63.8867 46.1975C64.9788 42.0994 56.5959 43.2638 56.6293 46.5084Z" fill="white"/>
<path d="M46.0149 41.4161C47.3491 41.7716 48.7188 40.9783 49.0744 39.6441C49.4299 38.31 48.6366 36.9402 47.3024 36.5847C45.9683 36.2291 44.5985 37.0225 44.243 38.3566C43.8874 39.6908 44.6808 41.0605 46.0149 41.4161Z" fill="white"/>
<path d="M76.2579 38.6085C76.1306 39.0862 75.8645 39.5155 75.4932 39.8421C75.1219 40.1686 74.6621 40.3777 74.172 40.4429C73.6818 40.5081 73.1834 40.4265 72.7396 40.2084C72.2958 39.9903 71.9267 39.6455 71.6789 39.2177C71.4311 38.7898 71.3157 38.2981 71.3474 37.8046C71.379 37.3112 71.5563 36.8382 71.8568 36.4455C72.1573 36.0528 72.5674 35.7581 73.0354 35.5985C73.5034 35.4389 74.0082 35.4217 74.486 35.549C75.1267 35.7197 75.6733 36.138 76.0056 36.7118C76.3379 37.2855 76.4287 37.9678 76.2579 38.6085Z" fill="white"/>
<path d="M54.7107 53.7438C54.9783 55.821 56.8544 57.7498 58.9234 56.3365C61.1366 54.8207 61.5744 50.8603 61.8288 48.4275C61.9557 47.1871 60.0575 47.2205 59.9314 48.4577C59.7922 49.8624 59.4967 51.2485 59.0509 52.5887C58.9038 53.1238 58.6862 53.6367 58.4043 54.1132C57.7894 55.0176 56.7641 54.9195 56.6081 53.7136C56.4521 52.5076 54.5531 52.5064 54.7107 53.7438Z" fill="white"/>
<path d="M60.18 48.6065C60.1554 50.2856 60.2766 51.9586 60.5421 53.6043C60.7398 54.8102 60.9122 56.3614 62.0366 56.998C64.4479 58.3333 66.2171 54.2741 66.2501 52.3209C66.2627 50.9575 64.2779 51.009 64.2513 52.3724C64.2385 53.1178 64.0506 54.1124 63.4629 54.6335C62.7064 55.3006 62.6668 54.1068 62.5544 53.489C62.2688 51.8725 62.1417 50.2239 62.175 48.569C62.1867 47.2092 60.1954 47.2589 60.1763 48.6205L60.18 48.6065Z" fill="white"/>
<path d="M29.905 22.6342C26.1113 21.6233 23.9858 28.5583 27.4919 30.2516C28.571 30.7762 29.581 28.957 28.4944 28.4231C28.157 28.2846 27.8792 28.0199 27.7073 27.6731C27.5353 27.3262 27.4795 26.918 27.5492 26.5162C27.7012 25.6607 28.4913 24.4309 29.3651 24.6601C30.5279 24.9699 31.0717 22.9414 29.905 22.6342Z" fill="white"/>
<path d="M76.5846 22.0623C77.1953 21.6153 78.2138 21.9361 78.6523 22.4899C79.2622 23.2657 79.0204 24.2866 78.5328 25.0095C77.8068 26.0882 79.6698 27.1274 80.3941 26.0553C81.4141 24.5404 81.4652 22.3198 79.9951 20.9413C79.3394 20.3233 78.4721 19.9478 77.5604 19.8871C76.6488 19.8263 75.7573 20.0847 75.0579 20.6123C73.997 21.3868 75.5309 22.8528 76.5811 22.0755L76.5846 22.0623Z" fill="white"/>
</g>
<defs>
<clipPath id="clip0_1_378">
<rect width="88" height="103" fill="white" transform="translate(26.5225) rotate(14.9216)"/>
</clipPath>
</defs>
</svg>
