<svg width="122" height="122" viewBox="0 0 122 122" fill="none" xmlns="http://www.w3.org/2000/svg">
<g clip-path="url(#clip0_1_414)">
<path d="M71.724 33.9612C76.7309 40.4857 82.7018 46.233 89.4073 50.9825C90.4618 51.7331 91.3632 50.0678 90.3089 49.3219C83.8952 44.7827 78.1811 39.2921 73.3846 33.0597C72.6048 32.0441 70.9322 32.9382 71.724 33.9612Z" fill="white"/>
<path d="M25.2647 74.7426C27.031 77.737 29.2732 80.4229 31.9037 82.6952C32.8768 83.537 34.3121 82.1162 33.3317 81.2672C30.8326 79.1195 28.7016 76.5776 27.0226 73.7417C26.3608 72.6274 24.6054 73.6259 25.2672 74.7401L25.2647 74.7426Z" fill="white"/>
<path d="M39.786 90.6805L45.4815 94.9183C46.5078 95.6822 47.5004 93.9293 46.4813 93.1677L40.7858 88.93C39.7594 88.1661 38.7645 89.9214 39.786 90.6805Z" fill="white"/>
<path d="M50.965 46.683C48.5111 48.9781 46.1941 51.4174 44.0313 53.9828C43.2053 54.9634 44.3895 56.167 45.2252 55.1767C47.3881 52.6113 49.7051 50.172 52.1589 47.8769C53.1072 46.9896 51.9109 45.7981 50.965 46.683Z" fill="white"/>
<path d="M39.5549 60.251L39.8456 60.9141C40.4205 62.2081 42.3297 61.9514 41.7625 60.6609L41.4697 59.9999C40.897 58.7037 38.9905 58.9632 39.5549 60.251Z" fill="white"/>
<path d="M26.8097 88.6498C25.4588 87.182 21.9908 84.5223 21.616 82.6234C21.3516 81.2878 23.4924 78.3792 24.1673 77.194C28.4452 69.6095 33.4677 62.4781 39.162 55.9032C50.2454 43.2296 65.4249 34.0094 82.2517 31.3105C83.8382 31.0565 91.858 29.3378 93.3357 30.9859C94.6026 32.4038 91.607 40.9872 91.0333 42.8043C85.9647 59.0483 75.6455 74.0686 61.8594 83.9958C55.5829 88.4584 49.0485 92.5516 42.2885 96.255C40.8393 97.0603 38.5202 98.9385 36.8076 99.0907C37.9092 98.9799 37.2427 98.8587 36.0116 97.6179C35.0679 96.6743 34.0511 95.7938 33.0417 94.9208C32.0324 94.0477 30.6107 95.4843 31.6126 96.3499C32.9164 97.4735 34.8721 100.461 36.3576 101.017C37.5721 101.472 39.1674 100.243 40.1649 99.731C47.1631 96.078 53.923 91.9948 60.4064 87.5045C75.7617 76.9543 87.1667 61.6201 92.8887 43.8319C93.8283 40.8761 96.8485 33.4323 95.1166 30.2105C93.854 27.8718 89.4892 28.571 87.3564 28.6975C69.629 29.7508 52.7808 38.8069 40.6448 51.2897C33.1042 59.0482 26.5664 68.3403 21.4746 77.8904C20.7689 79.2054 19.1885 81.3207 19.5366 82.964C20.0662 85.4413 23.789 88.3168 25.4199 90.089C26.3172 91.0642 27.7439 89.6326 26.8491 88.6599L26.8097 88.6498Z" fill="white"/>
<path d="M76.215 32.3247C80.1664 37.8373 84.8274 42.8127 90.0729 47.1173C91.0969 47.9563 92.5332 46.535 91.5017 45.6885C86.388 41.5154 81.8408 36.6883 77.9823 31.3366C77.2116 30.2641 75.4466 31.235 76.215 32.3247Z" fill="white"/>
<path d="M78.26 44.3826C75.1577 40.5938 69.1433 39.5039 65.022 42.5792C60.9006 45.6546 60.6764 51.7675 63.9195 55.4107C67.0248 58.8963 72.3185 59.9175 76.4678 57.4777C81.3869 54.5877 81.2705 48.8009 78.4143 44.6061C77.6937 43.5397 75.9034 44.5649 76.6412 45.6237C78.9524 49.0414 79.3712 53.6784 75.1111 55.9481C72.0138 57.5926 68.2116 56.8281 65.8044 54.4605C63.1187 51.8192 62.8244 47.203 65.8172 44.5056C69.0936 41.5585 74.2657 42.7691 76.7905 45.8521C77.6269 46.8317 79.0742 45.3747 78.26 44.3826Z" fill="white"/>
<path d="M23.6214 79.2374C25.1814 81.5525 26.9916 83.6699 29.0267 85.56C29.979 86.443 31.6774 84.7496 30.7169 83.8698C28.8064 82.1109 27.1041 80.1401 25.6336 77.9847C24.906 76.911 22.8865 78.1564 23.6214 79.2374Z" fill="white"/>
<path d="M36.0138 92.2603C37.5648 94.2689 39.3883 96.0624 41.4214 97.5789C42.4347 98.3296 43.2587 96.7564 42.2501 96.0104C40.4988 94.7073 38.926 93.1674 37.5852 91.4429C36.818 90.4555 35.2446 91.275 36.0167 92.2716L36.0138 92.2603Z" fill="white"/>
<path d="M37.195 78.484C34.8708 79.1882 32.8827 81.7622 31.2714 83.4227C28.4513 86.3581 25.8165 89.4664 23.3822 92.7301C22.1698 94.361 15.7889 102.854 21.9866 102.245C25.253 101.933 28.7836 98.9592 31.3639 97.2111C34.8611 94.8365 38.2521 92.2925 41.5397 89.6401C43.3284 88.1911 45.3144 86.993 44.7514 84.3997C44.0852 81.299 40.5365 78.4514 37.442 78.4438C36.1347 78.4413 36.1461 80.4733 37.4535 80.4758C41.0033 80.486 43.9418 84.5297 41.425 87.1057C39.7406 88.8294 37.4964 90.2661 35.5705 91.7045C33.2984 93.4005 30.987 95.0571 28.6038 96.5982C27.2427 97.4669 23.6752 100.409 21.9479 100.167C20.8992 100.014 21.4477 100.022 21.8181 98.8489C22.0995 97.9667 22.8241 97.0846 23.329 96.3187C24.8926 93.9972 26.5943 91.7726 28.4251 89.6567C30.6163 87.0618 34.2571 81.4957 37.7128 80.443C38.9666 80.0755 38.4438 78.1067 37.195 78.484Z" fill="white"/>
<path d="M31.4151 65.8603C29.368 62.6157 25.6051 59.493 21.7551 61.3959C16.5107 63.9717 11.3358 71.7394 8.72514 76.8219C7.72797 78.7573 6.54742 82.9141 10.2609 81.9599C14.4096 80.8934 19.9824 69.7162 24.8439 73.0821C25.9483 73.8492 26.9355 72.0701 25.8337 71.3055C23.2184 69.4918 20.4234 71.0761 18.219 72.6499C17.3673 73.2645 10.3779 80.2489 9.77373 79.8744C8.63058 79.1663 17.1313 68.6931 17.8192 67.9196C19.8095 65.6821 22.5558 61.7958 26.135 63.3417C27.5422 63.9522 28.8663 65.5842 29.6434 66.8501C30.3614 67.9884 32.1406 67.0012 31.42 65.8603L31.4151 65.8603Z" fill="white"/>
<path d="M54.3593 91.1854C55.7428 92.7545 57.3376 94.5886 58.0793 96.5756C59.3434 99.969 56.792 101.349 54.2587 103.201C52.0004 104.85 49.645 106.358 47.2498 107.781C45.4739 108.838 43.0191 109.631 41.4215 110.895C40.4668 111.655 40.8032 111.742 41.808 111.218C42.6841 110.766 43.6534 109.42 44.3782 108.734C46.2425 106.969 48.4128 105.223 49.8647 103.085C51.9426 100.055 50.5109 97.1387 47.9262 94.8421C46.9796 93.9981 45.5415 95.4267 46.4928 96.2754C50.9088 100.203 47.2826 103.258 44.1175 106.27C42.8875 107.443 39.3916 109.725 39.1202 111.553C38.5825 115.191 44.0812 111.831 45.2731 111.191C49.6889 108.809 57.268 105.288 60.001 100.783C62.2663 97.0462 58.1436 92.4205 55.8 89.7447C54.9584 88.7909 53.5275 90.2266 54.3666 91.1781L54.3593 91.1854Z" fill="white"/>
<path d="M94.3992 16.0903C93.8389 17.4198 93.3792 18.786 93.0242 20.177C92.6874 21.5163 94.7231 22.0117 95.0755 20.6619C95.4314 19.2716 95.8919 17.9063 96.4531 16.5777C96.6815 16.0385 96.2208 15.4265 95.7117 15.3142C95.4419 15.2549 95.1554 15.3027 94.9115 15.4477C94.6677 15.5926 94.4851 15.8236 94.4017 16.0928L94.3992 16.0903Z" fill="white"/>
<path d="M101.888 21.1481L99.638 23.3983C98.7806 24.2558 100.195 25.67 101.052 24.8125L103.302 22.5623C104.158 21.7071 102.746 20.2906 101.888 21.1481Z" fill="white"/>
<path d="M106.819 28.594C105.854 29.0377 104.816 29.3351 103.736 29.4774C102.375 29.6728 103.054 31.8097 104.387 31.6154C105.64 31.4333 106.843 31.0725 107.961 30.5436C109.175 29.9781 108.001 28.0398 106.791 28.6004L106.819 28.594Z" fill="white"/>
</g>
<defs>
<clipPath id="clip0_1_414">
<rect width="56" height="116" fill="white" transform="translate(82.0244) rotate(45)"/>
</clipPath>
</defs>
</svg>
