<svg width="36" height="36" viewBox="0 0 36 36" fill="none" xmlns="http://www.w3.org/2000/svg">
<path d="M26.2164 13.5166C26.2275 13.5165 26.2388 13.5165 26.25 13.5165C29.978 13.5165 33 16.5441 33 20.279C33 23.7597 30.375 26.6262 27 27M26.2164 13.5166C26.2386 13.2691 26.25 13.0184 26.25 12.7651C26.25 8.20042 22.5564 4.5 18 4.5C13.6849 4.5 10.1435 7.81901 9.78063 12.0479M26.2164 13.5166C26.063 15.2214 25.3929 16.7769 24.3642 18.0248M9.78063 12.0479C5.97597 12.4106 3 15.6209 3 19.5275C3 23.1625 5.57664 26.1948 9 26.8909M9.78063 12.0479C10.0174 12.0253 10.2573 12.0138 10.5 12.0138C12.1887 12.0138 13.7471 12.5729 15.0007 13.5165" stroke="#737373" stroke-width="1.5" stroke-linecap="round" stroke-linejoin="round"/>
<path d="M18 19.5V31.5M18 19.5C16.9497 19.5 14.9873 22.4915 14.25 23.25M18 19.5C19.0503 19.5 21.0128 22.4915 21.75 23.25" stroke="#737373" stroke-width="1.5" stroke-linecap="round" stroke-linejoin="round"/>
</svg>
